<mxfile host="app.diagrams.net" modified="2020-12-24T13:41:44.172Z" agent="5.0 (Windows NT 10.0; Win64; x64) AppleWebKit/537.36 (KHTML, like Gecko) Chrome/89.0.4346.0 Safari/537.36 Edg/89.0.731.0" etag="tdzdSqgrZ_dqV5eQyKnn" version="14.1.2" type="github">
  <diagram id="E-4EUhUyf_fyPSkc64Zu" name="Page-1">
    <mxGraphModel dx="1038" dy="588" grid="1" gridSize="10" guides="1" tooltips="1" connect="1" arrows="1" fold="1" page="1" pageScale="1" pageWidth="850" pageHeight="1100" math="0" shadow="0">
      <root>
        <mxCell id="0" />
        <mxCell id="1" parent="0" />
        <mxCell id="VvAkt_wsxwktJyGcCQa0-2" value="" style="rounded=0;whiteSpace=wrap;html=1;fontStyle=1" vertex="1" parent="1">
          <mxGeometry x="80" y="40" width="650" height="400" as="geometry" />
        </mxCell>
        <mxCell id="VvAkt_wsxwktJyGcCQa0-4" value="NavBar" style="rounded=0;whiteSpace=wrap;html=1;" vertex="1" parent="1">
          <mxGeometry x="80" y="40" width="650" height="50" as="geometry" />
        </mxCell>
        <mxCell id="VvAkt_wsxwktJyGcCQa0-6" value="2016&amp;nbsp; &amp;nbsp; &amp;nbsp; &amp;nbsp; &amp;nbsp; &amp;nbsp; 2017&amp;nbsp; &amp;nbsp; &amp;nbsp; &amp;nbsp; &amp;nbsp; &amp;nbsp; 2018&amp;nbsp; &amp;nbsp; &amp;nbsp; &amp;nbsp; &amp;nbsp; &amp;nbsp; 2019&amp;nbsp; &amp;nbsp; &amp;nbsp; &amp;nbsp; &amp;nbsp; &amp;nbsp; 2020" style="rounded=0;whiteSpace=wrap;html=1;" vertex="1" parent="1">
          <mxGeometry x="212.5" y="100" width="390" height="60" as="geometry" />
        </mxCell>
        <mxCell id="VvAkt_wsxwktJyGcCQa0-7" value="" style="triangle;whiteSpace=wrap;html=1;" vertex="1" parent="1">
          <mxGeometry x="610" y="100" width="40" height="60" as="geometry" />
        </mxCell>
        <mxCell id="VvAkt_wsxwktJyGcCQa0-8" value="" style="triangle;whiteSpace=wrap;html=1;direction=west;" vertex="1" parent="1">
          <mxGeometry x="160" y="100" width="40" height="60" as="geometry" />
        </mxCell>
        <mxCell id="VvAkt_wsxwktJyGcCQa0-11" value="" style="triangle;whiteSpace=wrap;html=1;direction=south;" vertex="1" parent="1">
          <mxGeometry x="400" y="100" width="15" height="20" as="geometry" />
        </mxCell>
        <mxCell id="VvAkt_wsxwktJyGcCQa0-12" value="" style="triangle;whiteSpace=wrap;html=1;direction=north;" vertex="1" parent="1">
          <mxGeometry x="400" y="140" width="15" height="20" as="geometry" />
        </mxCell>
        <mxCell id="VvAkt_wsxwktJyGcCQa0-16" value="After movie 2018" style="rounded=0;whiteSpace=wrap;html=1;" vertex="1" parent="1">
          <mxGeometry x="95" y="240" width="295" height="190" as="geometry" />
        </mxCell>
        <mxCell id="VvAkt_wsxwktJyGcCQa0-17" value="Tirutsava 2018 Stats" style="rounded=1;whiteSpace=wrap;html=1;" vertex="1" parent="1">
          <mxGeometry x="160" y="170" width="490" height="60" as="geometry" />
        </mxCell>
        <mxCell id="VvAkt_wsxwktJyGcCQa0-18" value="Photo Collage 2018/some writeup" style="rounded=1;whiteSpace=wrap;html=1;" vertex="1" parent="1">
          <mxGeometry x="460" y="240" width="260" height="190" as="geometry" />
        </mxCell>
      </root>
    </mxGraphModel>
  </diagram>
</mxfile>
